name C:\Users\u0101727\Documents\MyRepositories\upper-imu-dc\Results\main_tracking\Case_32\kinematics.mot
datacolumns 10
datarows 47
range 6.30000000 6.76000000
endheader 
time	clav_prot	clav_elev	scapula_abduction	scapula_elevation	scapula_upward_rot	scapula_winging	plane_elv	shoulder_elv	axial_rot	
          6.30000000	        -41.77429401	          9.37678380	         -2.87016339	         -2.17919533	         73.81687428	        -11.70460244	         26.71999423	         89.13044731	         -1.03632709	
          6.31000000	        -41.77432496	          9.35948275	         -2.73481020	         -2.18002482	         73.97988028	        -11.68407401	         26.95148976	         89.16118674	         -1.08409886	
          6.32000000	        -41.77377381	          9.34676433	         -2.59640367	         -2.17726213	         74.14714478	        -11.66372776	         27.18416106	         89.18475440	         -1.12614513	
          6.33000000	        -41.77164680	          9.33642716	         -2.45207793	         -2.17225201	         74.31937502	        -11.64234020	         27.41598467	         89.20214688	         -1.16163435	
          6.34000000	        -41.76727384	          9.32620047	         -2.30008095	         -2.16646084	         74.49654971	        -11.61892667	         27.64571082	         89.21464393	         -1.18994445	
          6.35000000	        -41.76056583	          9.31421782	         -2.14034463	         -2.16118143	         74.67791481	        -11.59301734	         27.87310866	         89.22354045	         -1.21080096	
          6.36000000	        -41.75213771	          9.29938559	         -1.97465792	         -2.15728546	         74.86215586	        -11.56480916	         28.09892262	         89.22988778	         -1.22442062	
          6.37000000	        -41.74324045	          9.28153890	         -1.80635980	         -2.15509418	         75.04769237	        -11.53513786	         28.32453896	         89.23434094	         -1.23163718	
          6.38000000	        -41.73549712	          9.26131568	         -1.63959737	         -2.15441917	         75.23300296	        -11.50525966	         28.55145667	         89.23718134	         -1.23397069	
          6.39000000	        -41.73051590	          9.23976669	         -1.47834736	         -2.15477353	         75.41689350	        -11.47649925	         28.78073536	         89.23850210	         -1.23360147	
          6.40000000	        -41.72951649	          9.21783444	         -1.32551607	         -2.15568011	         75.59865060	        -11.44988370	         29.01261220	         89.23845581	         -1.23323115	
          6.41000000	        -41.73310908	          9.19591525	         -1.18242892	         -2.15694550	         75.77806085	        -11.42589924	         29.24641135	         89.23743543	         -1.23584294	
          6.42000000	        -41.74129334	          9.17369815	         -1.04886383	         -2.15877420	         75.95531228	        -11.40445746	         29.48073955	         89.23610830	         -1.24439839	
          6.43000000	        -41.75364691	          9.15034491	         -0.92356124	         -2.16167434	         76.13081816	        -11.38506631	         29.71385266	         89.23531217	         -1.26152481	
          6.44000000	        -41.76960723	          9.12491417	         -0.80497810	         -2.16620881	         76.30501553	        -11.36712116	         29.94404687	         89.23588416	         -1.28925198	
          6.45000000	        -41.78873364	          9.09682511	         -0.69199035	         -2.17271639	         76.47819793	        -11.35019308	         30.16995136	         89.23850253	         -1.32884402	
          6.46000000	        -41.81085436	          9.06615020	         -0.58428813	         -2.18113320	         76.65042866	        -11.33420030	         30.39064553	         89.24360316	         -1.38074661	
          6.47000000	        -41.83604614	          9.03361619	         -0.48233990	         -2.19099141	         76.82153940	        -11.31940057	         30.60558763	         89.25140915	         -1.44463979	
          6.48000000	        -41.86446031	          9.00032870	         -0.38698241	         -2.20158825	         76.99117869	        -11.30621797	         30.81441218	         89.26207438	         -1.51956378	
          6.49000000	        -41.89608210	          8.96735886	         -0.29885284	         -2.21224199	         77.15887218	        -11.29499252	         31.01670453	         89.27587717	         -1.60407634	
          6.50000000	        -41.93055138	          8.93538670	         -0.21793886	         -2.22251384	         77.32408730	        -11.28577607	         31.21186145	         89.29334676	         -1.69640888	
          6.51000000	        -41.96714133	          8.90455867	         -0.14344070	         -2.23229595	         77.48631624	        -11.27826977	         31.39908984	         89.31522650	         -1.79460707	
          6.52000000	        -42.00489880	          8.87460536	         -0.07396677	         -2.24173475	         77.64517180	        -11.27191982	         31.57752040	         89.34228159	         -1.89665811	
          6.53000000	        -42.04286664	          8.84514092	         -0.00793251	         -2.25103891	         77.80046237	        -11.26611172	         31.74637096	         89.37505613	         -2.00061618	
          6.54000000	        -42.08028880	          8.81598977	          0.05602503	         -2.26027161	         77.95221725	        -11.26037005	         31.90509822	         89.41369463	         -2.10473807	
          6.55000000	        -42.11673011	          8.78738482	          0.11877100	         -2.26922721	         78.10066020	        -11.25448423	         32.05350602	         89.45788834	         -2.20763103	
          6.56000000	        -42.15208939	          8.75995024	          0.18060717	         -2.27744886	         78.24614832	        -11.24852152	         32.19180518	         89.50694526	         -2.30839261	
          6.57000000	        -42.18652213	          8.73448560	          0.24140290	         -2.28437466	         78.38910038	        -11.24273639	         32.32062773	         89.55993839	         -2.40670273	
          6.58000000	        -42.22031528	          8.71166032	          0.30084494	         -2.28953946	         78.52994432	        -11.23742469	         32.44099255	         89.61586000	         -2.50282535	
          6.59000000	        -42.25376232	          8.69176269	          0.35870465	         -2.29273612	         78.66910607	        -11.23278539	         32.55421536	         89.67371693	         -2.59750087	
          6.60000000	        -42.28706452	          8.67460960	          0.41504503	         -2.29406670	         78.80703138	        -11.22883478	         32.66176203	         89.73255422	         -2.69174239	
          6.61000000	        -42.32025711	          8.65963727	          0.47033830	         -2.29387281	         78.94420620	        -11.22538299	         32.76506226	         89.79144769	         -2.78657490	
          6.62000000	        -42.35315420	          8.64611043	          0.52549829	         -2.29258979	         79.08114686	        -11.22205725	         32.86532258	         89.84951051	         -2.88276822	
          6.63000000	        -42.38531750	          8.63335127	          0.58183810	         -2.29059306	         79.21835185	        -11.21834993	         32.96339219	         89.90593153	         -2.98061522	
          6.64000000	        -42.41605899	          8.62091182	          0.64096074	         -2.28808896	         79.35622292	        -11.21367628	         33.05971985	         89.96004055	         -3.07980342	
          6.65000000	        -42.44448804	          8.60866621	          0.70459517	         -2.28506405	         79.49498611	        -11.20743800	         33.15439877	         90.01136798	         -3.17942093	
          6.66000000	        -42.46960842	          8.59683520	          0.77440330	         -2.28128001	         79.63466210	        -11.19909217	         33.24725909	         90.05964844	         -3.27812098	
          6.67000000	        -42.49045290	          8.58594880	          0.85180121	         -2.27630593	         79.77511614	        -11.18821529	         33.33796356	         90.10474529	         -3.37443353	
          6.68000000	        -42.50621593	          8.57672361	          0.93784712	         -2.26960259	         79.91616272	        -11.17453575	         33.42609024	         90.14653769	         -3.46715126	
          6.69000000	        -42.51633583	          8.56982533	          1.03323619	         -2.26068121	         80.05766137	        -11.15790660	         33.51121450	         90.18484873	         -3.55565707	
          6.70000000	        -42.52050147	          8.56552933	          1.13840052	         -2.24933098	         80.19955180	        -11.13821481	         33.59300861	         90.21946315	         -3.64005891	
          6.71000000	        -42.51859628	          8.56337364	          1.25365676	         -2.23585448	         80.34181328	        -11.11526291	         33.67135643	         90.25022643	         -3.72108828	
          6.72000000	        -42.51062064	          8.56196381	          1.37930110	         -2.22120528	         80.48435875	        -11.08868910	         33.74645628	         90.27718321	         -3.79984520	
          6.73000000	        -42.49664216	          8.55906570	          1.51555557	         -2.20693662	         80.62689181	        -11.05798749	         33.81888318	         90.30070159	         -3.87753312	
          6.74000000	        -42.47680857	          8.55199902	          1.66233939	         -2.19495092	         80.76877104	        -11.02264402	         33.88959940	         90.32153459	         -3.95528072	
          6.75000000	        -42.45141524	          8.53820001	          1.81895356	         -2.18713294	         80.90893498	        -10.98233796	         33.95990678	         90.34079254	         -4.03406232	
          6.76000000	        -42.42097584	          8.51575901	          1.98385074	         -2.18498880	         81.04593297	        -10.93711897	         34.03131759	         90.35983202	         -4.11468894	
